<?xml version="1.0" standalone="no"?>
<!DOCTYPE svg PUBLIC "-//W3C//DTD SVG 20010904//EN"
 "http://www.w3.org/TR/2001/REC-SVG-20010904/DTD/svg10.dtd">
<svg version="1.0" xmlns="http://www.w3.org/2000/svg"
 width="1501.000000pt" height="1501.000000pt" viewBox="0 0 1501.000000 1501.000000"
 preserveAspectRatio="xMidYMid meet">
<metadata>
Created by potrace 1.14, written by Peter Selinger 2001-2017
</metadata>
<g transform="translate(0.000000,1501.000000) scale(0.100000,-0.100000)"
fill="#000000" stroke="none">
<path d="M4114 13440 c-53 -12 -110 -51 -148 -100 -31 -41 -73 -146 -92 -230
-10 -46 -42 -235 -49 -285 -3 -27 -8 -61 -10 -75 -2 -14 -6 -47 -10 -75 -24
-196 -82 -381 -157 -500 -7 -11 -33 -51 -57 -90 -25 -38 -79 -117 -121 -175
-78 -108 -184 -266 -209 -310 -47 -87 -107 -215 -128 -275 -147 -423 -7 -774
379 -954 45 -22 115 -49 153 -62 61 -19 76 -29 110 -72 75 -94 298 -310 379
-367 12 -8 29 -22 40 -32 18 -17 18 -17 -5 -22 -81 -18 -176 -41 -254 -63 -49
-14 -100 -27 -112 -29 -12 -2 -34 -9 -47 -14 -19 -7 -44 -2 -108 21 -248 91
-475 100 -658 27 -216 -86 -354 -267 -359 -473 -3 -118 35 -210 145 -355 61
-80 77 -117 77 -180 1 -140 -119 -275 -358 -404 -126 -68 -167 -94 -209 -128
-147 -124 -103 -333 74 -352 19 -2 63 3 97 10 59 12 312 102 465 165 39 16 73
29 76 29 2 0 2 -12 -2 -28 -3 -15 -9 -38 -11 -50 -14 -60 -81 -170 -140 -229
-84 -83 -151 -125 -422 -260 -189 -94 -234 -120 -243 -143 -16 -38 0 -67 63
-114 212 -158 519 -174 791 -40 117 58 178 105 337 264 136 136 164 168 361
422 83 106 173 220 201 253 137 163 263 252 418 295 94 26 119 62 77 115 -18
24 -26 26 -59 21 -73 -12 -210 -68 -287 -118 -102 -67 -215 -185 -369 -387
-269 -352 -435 -537 -583 -651 -70 -53 -181 -122 -205 -126 -5 -2 -37 -12 -70
-24 -85 -30 -229 -37 -320 -16 -68 16 -175 59 -175 71 0 3 66 38 148 77 420
206 552 340 616 632 l23 101 124 63 c240 121 445 241 634 370 146 100 379 279
428 328 99 101 137 233 96 339 -34 87 -43 95 -326 266 -109 65 -190 121 -182
123 14 5 95 27 114 32 6 1 40 9 76 18 74 17 97 22 182 37 38 8 61 8 70 1 16
-13 74 -45 182 -102 169 -88 385 -165 478 -169 100 -4 172 58 184 157 17 145
-104 253 -312 277 -115 14 -362 6 -473 -15 -37 -6 -48 -4 -90 22 -118 75 -412
337 -412 368 0 6 4 9 9 6 13 -9 174 -9 251 -1 62 6 172 28 305 60 33 8 76 17
95 20 19 2 60 8 90 13 261 37 541 -65 745 -272 34 -33 80 -86 103 -118 48 -63
91 -88 149 -88 88 0 184 85 197 175 4 26 9 55 11 64 4 23 16 116 20 161 2 19
6 53 9 75 26 193 21 616 -9 845 -4 30 -9 66 -10 80 -3 25 -13 83 -21 124 -2
11 -7 37 -10 56 -12 72 -67 279 -101 380 -148 443 -395 850 -702 1159 l-103
104 84 -6 c98 -8 128 -16 223 -63 283 -140 633 -574 815 -1010 61 -147 142
-407 165 -529 12 -66 28 -171 40 -260 30 -226 21 -676 -19 -880 -2 -11 -7 -42
-10 -70 -4 -27 -9 -57 -11 -65 -2 -8 -6 -33 -10 -55 -10 -71 -93 -396 -130
-512 -23 -72 -42 -114 -53 -118 -9 -4 -48 -18 -87 -32 -90 -33 -256 -111 -348
-164 -91 -53 -208 -129 -225 -146 -7 -7 -17 -13 -21 -13 -4 0 -16 -8 -27 -17
-10 -10 -37 -31 -59 -47 -22 -17 -42 -32 -45 -35 -3 -4 -36 -33 -75 -66 -203
-174 -413 -415 -582 -670 -71 -107 -105 -162 -176 -285 -26 -46 -197 -387
-197 -394 0 -3 -11 -29 -24 -58 -43 -92 -75 -175 -81 -205 -7 -45 26 -76 74
-69 53 7 256 79 369 130 53 25 151 66 217 92 230 90 465 211 680 352 106 69
301 211 351 257 7 5 43 37 80 70 185 162 314 312 367 425 16 36 33 72 37 80 7
15 15 45 25 99 21 111 -12 220 -74 245 -36 14 -120 14 -182 1 l-30 -7 15 34
c8 18 40 99 73 179 l58 147 90 21 c96 23 116 27 180 37 185 29 419 27 540 -4
184 -47 304 -131 374 -262 65 -122 54 -249 -31 -344 -49 -57 -110 -86 -184
-89 -48 -2 -60 -6 -75 -27 -39 -54 0 -100 85 -100 162 0 314 126 361 302 41
153 -13 315 -156 468 -75 81 -254 165 -394 185 -16 3 -52 8 -80 13 -60 9 -266
8 -350 -2 -126 -15 -165 -22 -262 -44 -47 -11 -56 -7 -43 17 19 33 117 407
135 514 3 17 8 39 10 47 2 8 7 35 10 60 3 25 8 56 10 70 8 43 13 83 19 138 3
28 9 75 12 103 13 114 19 438 10 534 -3 22 -7 74 -10 115 -4 41 -8 86 -10 100
-3 14 -7 45 -10 70 -8 56 -15 98 -22 130 -3 14 -8 36 -10 50 -10 62 -50 205
-86 314 -162 485 -431 894 -769 1171 -90 74 -244 155 -344 181 -84 21 -221 22
-282 1 -42 -14 -42 -14 -95 23 -210 149 -536 254 -684 220z m811 -3694 c87
-11 146 -42 168 -89 17 -36 17 -41 2 -64 -15 -23 -21 -25 -70 -19 -63 7 -211
59 -348 123 l-102 48 45 5 c63 7 234 5 305 -4z m1051 -478 c-62 -148 -109
-241 -126 -249 -8 -4 -60 -29 -114 -55 -114 -55 -281 -164 -411 -268 -210
-170 -364 -338 -517 -566 -96 -144 -229 -404 -251 -490 -8 -31 -21 -57 -33
-63 -44 -25 -234 -94 -234 -86 0 5 25 65 56 132 214 468 462 842 753 1136 262
265 522 445 841 582 36 16 68 29 72 29 4 0 -12 -46 -36 -102z"/>
<path d="M7337 10154 c-1 -1 -20 -5 -42 -8 -23 -4 -52 -9 -65 -11 -14 -3 -38
-8 -55 -11 -16 -2 -48 -10 -70 -15 -22 -6 -47 -12 -55 -14 -8 -2 -60 -18 -115
-35 -216 -69 -489 -197 -514 -241 -18 -33 -8 -72 22 -88 22 -11 38 -6 174 61
226 112 429 182 633 217 226 40 367 -1 384 -111 18 -115 -82 -139 -210 -52
-81 56 -106 57 -133 7 -18 -36 -4 -66 51 -103 175 -120 328 -110 397 25 70
134 -17 304 -184 360 -41 13 -208 28 -218 19z"/>
<path d="M8290 8022 c-71 -23 -554 -465 -730 -667 -169 -194 -355 -442 -392
-522 -55 -117 -35 -226 60 -332 l40 -45 -19 -45 c-10 -26 -43 -107 -74 -181
-30 -74 -56 -135 -58 -135 -2 0 -64 56 -137 125 -136 129 -359 304 -560 439
-116 78 -315 201 -325 201 -3 0 -23 11 -44 25 -50 31 -294 153 -387 194 -104
45 -135 48 -197 17 -45 -21 -58 -24 -92 -15 -68 16 -189 39 -205 39 -44 -1
-74 -77 -125 -315 -49 -226 -69 -373 -91 -645 -8 -100 -8 -444 0 -545 9 -114
17 -198 21 -225 2 -14 7 -50 10 -80 4 -30 9 -64 11 -75 2 -10 6 -37 10 -60 9
-62 62 -314 79 -375 9 -30 18 -62 20 -70 95 -371 319 -863 541 -1189 35 -51
64 -97 64 -101 0 -5 3 -10 8 -12 4 -1 41 -48 82 -103 157 -210 414 -486 600
-646 41 -35 77 -66 80 -69 11 -13 158 -128 190 -150 19 -13 41 -30 48 -37 27
-26 333 -223 445 -288 101 -56 278 -145 417 -208 74 -33 250 -101 355 -137 61
-21 101 -39 90 -40 -11 -1 -29 -3 -40 -5 -11 -2 -42 -7 -69 -10 -27 -4 -56 -8
-65 -10 -141 -27 -673 -26 -866 0 -196 28 -473 81 -487 93 -4 4 42 6 103 6
105 -1 219 15 259 36 11 6 25 28 31 50 16 54 1 74 -102 133 -46 27 -104 61
-129 78 -25 16 -51 32 -59 35 -29 15 -305 212 -355 255 -12 9 -55 46 -98 82
-139 117 -311 282 -423 407 -271 299 -524 670 -595 869 -19 52 -43 106 -55
119 -22 25 -27 27 -230 57 -55 8 -115 17 -133 20 -17 3 -49 8 -70 11 -20 3
-77 11 -127 19 -49 8 -110 16 -135 20 -25 3 -70 10 -100 15 -50 9 -84 13 -179
25 -43 5 -43 6 -48 62 -4 41 -1 51 19 69 20 19 99 43 193 59 100 17 218 35
270 40 33 4 71 8 84 10 28 5 191 15 293 19 98 3 134 45 92 105 l-17 23 -171
-6 c-94 -3 -180 -8 -191 -10 -11 -2 -51 -7 -89 -11 -38 -4 -79 -8 -90 -10 -12
-2 -41 -6 -66 -9 -52 -7 -67 -10 -197 -36 -185 -37 -257 -95 -257 -208 1 -31
4 -71 7 -89 6 -25 3 -33 -10 -37 -26 -9 -80 -62 -100 -99 -24 -44 -24 -183 0
-253 15 -43 145 -258 166 -274 3 -3 19 -23 36 -45 16 -22 39 -51 51 -65 270
-318 474 -507 799 -740 72 -51 146 -107 166 -124 252 -220 653 -458 999 -593
163 -64 390 -136 498 -158 9 -2 49 -10 87 -19 89 -20 242 -45 308 -52 29 -3
63 -7 77 -9 132 -25 662 -25 810 -1 14 3 48 7 75 10 101 11 143 18 283 47
l143 30 117 -25 c129 -27 218 -42 302 -51 30 -3 64 -8 75 -10 119 -24 659 -24
805 -1 14 3 48 7 75 10 74 9 227 35 350 60 157 32 488 137 630 200 281 125
455 220 650 354 67 46 248 184 265 202 3 3 23 20 45 39 22 18 60 52 85 75 25
23 86 73 135 111 256 195 454 381 640 600 189 222 301 397 324 503 23 107 -9
216 -79 272 -34 27 -37 33 -31 63 26 119 -25 205 -149 250 -66 23 -297 66
-450 83 -30 3 -66 7 -80 10 -14 2 -104 6 -200 10 -140 5 -179 3 -193 -8 -23
-17 -26 -74 -5 -94 16 -16 30 -18 228 -29 220 -12 418 -38 607 -81 85 -19 114
-40 118 -84 4 -58 -1 -65 -58 -68 -28 -1 -141 -16 -252 -33 -110 -17 -216 -33
-235 -35 -19 -3 -46 -7 -59 -9 -13 -2 -45 -7 -70 -11 -25 -4 -55 -8 -65 -10
-10 -2 -71 -11 -135 -20 -64 -9 -128 -22 -142 -30 -20 -10 -35 -37 -68 -126
-54 -141 -108 -232 -301 -512 -161 -233 -493 -588 -735 -784 -38 -31 -72 -60
-75 -63 -19 -22 -321 -238 -382 -274 -10 -5 -55 -33 -100 -61 -46 -28 -102
-61 -125 -74 -58 -32 -71 -88 -30 -135 17 -19 40 -29 97 -40 93 -18 293 -14
404 9 84 17 112 16 49 -2 -116 -32 -160 -44 -173 -47 -8 -2 -53 -13 -100 -24
-101 -24 -109 -25 -272 -51 -70 -11 -171 -23 -225 -27 -184 -15 -636 -8 -740
11 -10 2 -57 9 -105 16 -49 7 -88 14 -88 16 0 2 28 12 63 23 78 24 252 90 377
143 128 54 417 199 455 228 6 4 33 20 60 36 54 30 233 146 330 215 219 155
468 374 670 590 70 76 82 89 166 189 124 147 295 396 408 594 57 98 179 340
208 412 6 16 19 47 28 69 63 152 177 495 200 604 2 9 11 50 20 91 9 41 18 82
20 90 9 45 35 191 40 230 3 25 8 56 10 70 2 14 6 50 9 80 3 30 9 87 13 125 16
155 8 653 -12 810 -2 17 -7 53 -10 80 -13 102 -16 123 -41 250 -22 116 -50
232 -85 363 -7 26 -22 50 -36 60 -23 15 -33 14 -132 -5 -105 -21 -109 -21
-161 -3 -67 23 -87 19 -240 -42 -166 -66 -367 -166 -520 -258 -213 -129 -634
-430 -692 -496 -16 -18 -18 -23 -18 -42 0 -4 -49 -58 -108 -120 l-109 -114
-11 29 c-6 15 -20 55 -31 88 -11 33 -34 93 -50 134 -17 41 -31 78 -31 84 0 6
18 33 40 62 86 112 97 205 38 333 -49 105 -268 410 -447 622 -98 116 -374 400
-466 481 -116 101 -186 159 -193 160 -33 5 -59 5 -72 1z m-2998 -1053 c29 -6
57 -14 61 -19 4 -4 3 -36 -2 -71 -14 -83 -18 -121 -26 -205 -3 -38 -8 -80 -10
-94 -8 -55 -17 -272 -17 -399 1 -242 19 -452 58 -686 75 -457 213 -880 419
-1285 63 -125 77 -151 147 -273 104 -180 319 -477 476 -657 86 -98 338 -349
427 -425 38 -33 75 -64 81 -70 16 -15 184 -144 336 -258 75 -56 199 -150 275
-208 154 -119 275 -200 374 -251 36 -19 83 -53 105 -78 21 -25 41 -47 44 -50
3 -3 18 -20 34 -37 l28 -32 -73 24 c-806 259 -1563 785 -2077 1444 -111 142
-233 322 -310 456 -35 60 -67 117 -72 125 -13 21 -123 244 -150 304 -86 191
-220 599 -246 750 -2 17 -9 47 -14 66 -5 19 -16 78 -25 130 -22 131 -23 137
-31 205 -3 33 -8 67 -9 76 -25 131 -25 710 0 874 2 17 7 53 10 80 16 136 87
497 111 560 7 18 9 18 76 4z m6156 -116 c29 -120 59 -269 68 -338 2 -16 6 -43
8 -60 3 -16 8 -57 11 -90 3 -33 8 -71 10 -85 21 -126 21 -649 0 -770 -2 -14
-7 -54 -10 -90 -4 -36 -8 -76 -10 -90 -2 -14 -6 -47 -10 -75 -3 -27 -8 -57
-10 -65 -3 -8 -7 -32 -11 -54 -8 -53 -9 -60 -33 -158 -11 -48 -23 -98 -25
-110 -24 -115 -128 -428 -200 -596 -97 -229 -186 -398 -319 -607 -61 -96 -229
-331 -246 -345 -4 -3 -22 -25 -41 -50 -168 -216 -487 -520 -754 -717 -132 -98
-130 -96 -211 -149 -217 -142 -417 -249 -720 -384 -49 -22 -316 -121 -365
-135 -24 -7 -24 -6 7 26 17 19 51 55 75 81 25 27 77 64 123 89 149 78 315 189
644 426 298 215 654 553 883 838 134 167 368 498 368 520 0 4 13 25 28 48 64
94 193 349 282 558 137 320 267 774 315 1104 16 108 24 176 30 240 4 39 8 81
11 95 6 42 17 299 17 420 0 112 -12 389 -18 420 -2 8 -6 51 -9 95 -4 44 -9 88
-12 97 -4 13 4 20 28 27 64 18 62 21 96 -116z m-4034 -519 c17 -14 51 -45 76
-68 25 -22 79 -70 120 -106 41 -35 77 -67 80 -70 16 -17 314 -273 359 -308
154 -122 322 -153 480 -91 126 50 420 272 695 527 59 55 60 55 70 31 5 -13 15
-37 22 -54 23 -52 94 -259 94 -273 0 -7 -28 -47 -62 -88 -51 -60 -67 -74 -83
-69 -51 16 -61 16 -86 -7 -21 -19 -123 -138 -207 -243 -101 -125 -280 -392
-381 -567 -56 -99 -221 -419 -221 -431 0 -2 -12 -31 -26 -62 -25 -57 -26 -58
-38 -34 -6 13 -18 40 -25 59 -25 63 -187 384 -229 454 -23 37 -42 70 -42 73 0
2 -18 31 -40 64 -22 33 -40 63 -40 65 0 3 -36 57 -80 122 -152 224 -375 497
-420 516 -15 6 -69 57 -119 112 l-91 102 19 53 c23 66 76 199 102 256 10 23
19 47 19 52 0 18 21 12 54 -15z m959 -4384 c32 3 60 3 62 0 2 -4 -17 -24 -43
-45 -26 -22 -51 -45 -55 -52 -4 -7 -12 -13 -17 -13 -10 0 -110 101 -110 110 0
3 24 3 53 0 28 -3 78 -3 110 0z"/>
</g>
</svg>
